<svg width="20" height="12" viewBox="0 0 20 12" fill="none" xmlns="http://www.w3.org/2000/svg">
<path d="M4.93359 7.95703C4.93359 8.04688 4.94141 8.13281 4.95703 8.21484C4.97656 8.29297 5.01172 8.36133 5.0625 8.41992C5.11719 8.47852 5.18945 8.52539 5.2793 8.56055C5.37305 8.5957 5.49414 8.61328 5.64258 8.61328C5.85742 8.61328 6.05469 8.55273 6.23438 8.43164C6.41406 8.30664 6.56836 8.14844 6.69727 7.95703C6.82617 7.76172 6.92578 7.54492 6.99609 7.30664C7.06641 7.06445 7.10156 6.82422 7.10156 6.58594C7.10156 6.23047 7.05273 5.91797 6.95508 5.64844C6.86133 5.375 6.72852 5.14453 6.55664 4.95703C6.38477 4.76953 6.18164 4.625 5.94727 4.52344C5.71289 4.41797 5.45898 4.35742 5.18555 4.3418L5.30273 4.04297C5.47461 4.05078 5.63867 4.02734 5.79492 3.97266C5.95117 3.91797 6.08789 3.82227 6.20508 3.68555C6.32617 3.54883 6.42188 3.36523 6.49219 3.13477C6.5625 2.90039 6.59766 2.60742 6.59766 2.25586C6.59766 2.01758 6.56836 1.80273 6.50977 1.61133C6.45117 1.41992 6.37305 1.25977 6.27539 1.13086C6.18164 0.998047 6.07031 0.896484 5.94141 0.826172C5.81641 0.755859 5.6875 0.720703 5.55469 0.720703C5.47266 0.720703 5.39258 0.730469 5.31445 0.75C5.24023 0.769531 5.17383 0.802734 5.11523 0.849609C5.06055 0.896484 5.01562 0.958984 4.98047 1.03711C4.94922 1.11133 4.93359 1.20508 4.93359 1.31836V7.95703ZM5.05078 0.240234C6.18359 0.240234 7.01562 0.417969 7.54688 0.773438C8.08203 1.125 8.34961 1.63867 8.34961 2.31445C8.34961 2.48242 8.33008 2.63672 8.29102 2.77734C8.25586 2.91797 8.20898 3.04688 8.15039 3.16406C8.0918 3.27734 8.02539 3.37891 7.95117 3.46875C7.87695 3.55859 7.80078 3.63672 7.72266 3.70312C7.53906 3.86328 7.33203 3.98828 7.10156 4.07812V4.16602C7.46484 4.20898 7.79102 4.31836 8.08008 4.49414C8.20117 4.56836 8.32031 4.66211 8.4375 4.77539C8.55469 4.88477 8.6582 5.01953 8.74805 5.17969C8.8418 5.33594 8.91602 5.51953 8.9707 5.73047C9.0293 5.9375 9.05859 6.17578 9.05859 6.44531C9.05859 6.85547 8.98438 7.22461 8.83594 7.55273C8.6875 7.88086 8.4668 8.16016 8.17383 8.39062C7.88086 8.61719 7.51562 8.79102 7.07812 8.91211C6.64062 9.0332 6.13281 9.09375 5.55469 9.09375C5.01953 9.09375 4.58398 9.06055 4.24805 8.99414C3.91211 8.92773 3.65039 8.83203 3.46289 8.70703C3.27539 8.57812 3.14648 8.42383 3.07617 8.24414C3.00977 8.06445 2.97656 7.86133 2.97656 7.63477V1.22461C2.97656 1.00977 2.82812 0.902344 2.53125 0.902344C2.31641 0.902344 2.09766 0.935547 1.875 1.00195C1.65625 1.06445 1.45703 1.15234 1.27734 1.26562C1.10156 1.375 0.957031 1.50781 0.84375 1.66406C0.730469 1.81641 0.673828 1.98242 0.673828 2.16211C0.673828 2.28711 0.689453 2.38672 0.720703 2.46094C0.755859 2.53516 0.794922 2.5918 0.837891 2.63086C0.880859 2.66602 0.923828 2.68945 0.966797 2.70117C1.01367 2.70898 1.04688 2.71289 1.06641 2.71289C1.16406 2.71289 1.24414 2.69727 1.30664 2.66602C1.36914 2.63086 1.42578 2.5957 1.47656 2.56055C1.52734 2.52148 1.57422 2.48633 1.61719 2.45508C1.66406 2.41992 1.7168 2.40234 1.77539 2.40234C1.82227 2.40234 1.87109 2.41406 1.92188 2.4375C1.97656 2.45703 2.02539 2.49023 2.06836 2.53711C2.11523 2.58398 2.1543 2.64648 2.18555 2.72461C2.2168 2.79883 2.23242 2.89062 2.23242 3C2.23242 3.15625 2.20117 3.29102 2.13867 3.4043C2.08008 3.51758 2.00195 3.61328 1.9043 3.69141C1.81055 3.76562 1.70117 3.82227 1.57617 3.86133C1.45508 3.89648 1.33398 3.91406 1.21289 3.91406C1.02539 3.91406 0.855469 3.88281 0.703125 3.82031C0.554688 3.75391 0.427734 3.66406 0.322266 3.55078C0.216797 3.4375 0.136719 3.30469 0.0820312 3.15234C0.0273438 3 0 2.83789 0 2.66602C0 2.3418 0.0605469 2.05664 0.181641 1.81055C0.302734 1.56055 0.472656 1.3457 0.691406 1.16602C0.914062 0.986328 1.17969 0.837891 1.48828 0.720703C1.79688 0.599609 2.13867 0.503906 2.51367 0.433594C2.88867 0.363281 3.28906 0.314453 3.71484 0.287109C4.14453 0.255859 4.58984 0.240234 5.05078 0.240234ZM12.0234 4.1543C12.1719 3.92773 12.3301 3.72266 12.498 3.53906C12.5684 3.46094 12.6445 3.38477 12.7266 3.31055C12.8086 3.23633 12.8926 3.16992 12.9785 3.11133C13.0684 3.05273 13.1602 3.00586 13.2539 2.9707C13.3477 2.93555 13.4414 2.91797 13.5352 2.91797C13.7344 2.91797 13.8906 2.97852 14.0039 3.09961C14.1172 3.2168 14.1738 3.38281 14.1738 3.59766C14.1738 3.73047 14.1621 3.85938 14.1387 3.98438C14.1191 4.10547 14.0781 4.25391 14.0156 4.42969H13.8516C13.8281 4.30859 13.7734 4.20898 13.6875 4.13086C13.6016 4.04883 13.4766 4.00781 13.3125 4.00781C13.1914 4.00781 13.0723 4.03125 12.9551 4.07812C12.8379 4.12109 12.7227 4.17578 12.6094 4.24219C12.5 4.30859 12.3945 4.38086 12.293 4.45898C12.1953 4.53711 12.1055 4.61133 12.0234 4.68164V8.48438C12.0234 8.53516 12.0156 8.5957 12 8.66602C11.9844 8.73633 11.9453 8.80273 11.8828 8.86523C11.8242 8.92773 11.7344 8.98047 11.6133 9.02344C11.4961 9.07031 11.334 9.09375 11.127 9.09375C10.9199 9.09375 10.7559 9.06836 10.6348 9.01758C10.5176 8.9707 10.4277 8.91406 10.3652 8.84766C10.3027 8.78125 10.2637 8.71289 10.248 8.64258C10.2324 8.57227 10.2246 8.51562 10.2246 8.47266V3.94922C10.2246 3.83594 10.1973 3.73828 10.1426 3.65625C10.0918 3.57031 10.0039 3.52734 9.87891 3.52734C9.8125 3.52734 9.75586 3.53906 9.70898 3.5625C9.66211 3.58594 9.61133 3.61914 9.55664 3.66211L9.43359 3.51562C9.52344 3.44141 9.62305 3.36914 9.73242 3.29883C9.8457 3.22461 9.9668 3.16016 10.0957 3.10547C10.2246 3.05078 10.3633 3.00586 10.5117 2.9707C10.6602 2.93555 10.8164 2.91797 10.9805 2.91797C11.1484 2.91797 11.291 2.94141 11.4082 2.98828C11.5293 3.03125 11.627 3.08984 11.7012 3.16406C11.7793 3.23438 11.8398 3.31445 11.8828 3.4043C11.9258 3.49414 11.957 3.58594 11.9766 3.67969C12 3.76953 12.0137 3.85742 12.0176 3.94336C12.0215 4.02539 12.0234 4.0957 12.0234 4.1543ZM19.5938 3.83789C19.5938 4.55273 19.5234 5.24414 19.3828 5.91211C19.2461 6.57617 19.0547 7.20117 18.8086 7.78711C18.5664 8.36914 18.2773 8.90039 17.9414 9.38086C17.6055 9.86523 17.2402 10.2793 16.8457 10.623C16.4512 10.9668 16.0332 11.2344 15.5918 11.4258C15.1543 11.6172 14.7109 11.7129 14.2617 11.7129C13.918 11.7129 13.6523 11.6543 13.4648 11.5371C13.2773 11.4238 13.1836 11.2695 13.1836 11.0742C13.1836 11 13.1953 10.9277 13.2188 10.8574C13.2422 10.7871 13.2734 10.7246 13.3125 10.6699C13.3516 10.6152 13.3984 10.5703 13.4531 10.5352C13.5078 10.5039 13.5664 10.4883 13.6289 10.4883C13.7031 10.4883 13.7656 10.5254 13.8164 10.5996C13.8633 10.6738 13.9141 10.7539 13.9688 10.8398C14.0234 10.9297 14.0898 11.0117 14.168 11.0859C14.2461 11.1602 14.3535 11.1973 14.4902 11.1973C14.666 11.1973 14.8496 11.166 15.041 11.1035C15.2324 11.0449 15.4238 10.959 15.6152 10.8457C15.8105 10.7324 16.0039 10.5938 16.1953 10.4297C16.3906 10.2695 16.582 10.0898 16.7695 9.89062C16.6602 9.49609 16.5332 9.06641 16.3887 8.60156C16.248 8.13281 16.0977 7.66211 15.9375 7.18945C15.7812 6.7168 15.6191 6.26172 15.4512 5.82422C15.2871 5.38281 15.125 4.99219 14.9648 4.65234C14.8086 4.3125 14.6562 4.04102 14.5078 3.83789C14.3633 3.63086 14.2344 3.52734 14.1211 3.52734C14.0469 3.52734 13.9902 3.53906 13.9512 3.5625C13.9082 3.58594 13.8594 3.61914 13.8047 3.66211L13.6875 3.51562C13.7656 3.44922 13.8477 3.38086 13.9336 3.31055C14.0195 3.24023 14.1211 3.17578 14.2383 3.11719C14.3555 3.05859 14.4922 3.01172 14.6484 2.97656C14.8047 2.9375 14.9922 2.91797 15.2109 2.91797C15.4492 2.91797 15.6699 2.97266 15.873 3.08203C16.0801 3.1875 16.2676 3.38477 16.4355 3.67383C16.5566 3.88867 16.6816 4.14648 16.8105 4.44727C16.9434 4.74805 17.0762 5.08398 17.209 5.45508C17.3418 5.82617 17.4746 6.22852 17.6074 6.66211C17.7441 7.0918 17.8809 7.54297 18.0176 8.01562C18.2598 7.50781 18.4551 6.9707 18.6035 6.4043C18.752 5.83398 18.8262 5.24805 18.8262 4.64648C18.8262 4.43164 18.8125 4.24805 18.7852 4.0957C18.7578 3.94336 18.7266 3.81445 18.6914 3.70898C18.6562 3.59961 18.625 3.50781 18.5977 3.43359C18.5703 3.35547 18.5566 3.28711 18.5566 3.22852C18.5566 3.16992 18.5801 3.12109 18.627 3.08203C18.6738 3.03906 18.7305 3.00586 18.7969 2.98242C18.8633 2.95898 18.9297 2.94336 18.9961 2.93555C19.0664 2.92383 19.125 2.91797 19.1719 2.91797C19.2773 2.91797 19.3574 2.93945 19.4121 2.98242C19.4707 3.02539 19.5137 3.08789 19.541 3.16992C19.5684 3.24805 19.584 3.34375 19.5879 3.45703C19.5918 3.57031 19.5938 3.69727 19.5938 3.83789Z" fill="white"/>
</svg>
